<svg width="33" height="40" viewBox="0 0 33 40" fill="none" xmlns="http://www.w3.org/2000/svg">
<path d="M17.4611 33.2054C16.8753 33.7912 15.9255 33.7912 15.3397 33.2054L5.79379 23.6595C5.208 23.0737 5.208 22.1239 5.79379 21.5382C6.37958 20.9524 7.32932 20.9524 7.91511 21.5382L16.4004 30.0234L24.8857 21.5382C25.4715 20.9524 26.4212 20.9524 27.007 21.5382C27.5928 22.1239 27.5928 23.0737 27.007 23.6595L17.4611 33.2054ZM16.4004 0L17.9004 -6.55671e-08L17.9004 32.1448L16.4004 32.1448L14.9004 32.1448L14.9004 6.55671e-08L16.4004 0Z" fill="#B661D7"/>
<line x1="1.31134e-07" y1="37.8613" x2="32.8008" y2="37.8613" stroke="#B661D7" stroke-width="3"/>
<line x1="1.5" y1="36.5283" x2="1.5" y2="28.0001" stroke="#B661D7" stroke-width="3"/>
<line x1="31.5" y1="37.5283" x2="31.5" y2="29.0001" stroke="#B661D7" stroke-width="3"/>
</svg>
