<svg xmlns="http://www.w3.org/2000/svg" width="24" height="24" viewBox="0 0 24 24" fill="none" stroke="currentColor" stroke-width="2" stroke-linecap="round" stroke-linejoin="round" class="lucide lucide-ticket text-blue-600" data-pp-id="src/pages/Dashboard.tsx:141:20" data-pp-name="Icon" data-component-path="src/pages/Dashboard.tsx" data-component-line="141" data-component-file="Dashboard.tsx" data-component-name="Icon" data-component-content="%7B%7D"><path d="M2 9a3 3 0 0 1 0 6v2a2 2 0 0 0 2 2h16a2 2 0 0 0 2-2v-2a3 3 0 0 1 0-6V7a2 2 0 0 0-2-2H4a2 2 0 0 0-2 2Z"></path><path d="M13 5v2"></path><path d="M13 17v2"></path><path d="M13 11v2"></path></svg>