<svg width="50" height="63" viewBox="0 0 50 63" fill="none" xmlns="http://www.w3.org/2000/svg">
<path d="M26.7678 1.23223C25.7915 0.255924 24.2085 0.255924 23.2322 1.23223L7.32233 17.1421C6.34602 18.1184 6.34602 19.7014 7.32233 20.6777C8.29864 21.654 9.88155 21.654 10.8579 20.6777L25 6.53553L39.1421 20.6777C40.1184 21.654 41.7014 21.654 42.6777 20.6777C43.654 19.7014 43.654 18.1184 42.6777 17.1421L26.7678 1.23223ZM25 52L27.5 52L27.5 3L25 3L22.5 3L22.5 52L25 52Z" fill="#B661D7"/>
<line x1="2.18557e-07" y1="60.5" x2="50" y2="60.5" stroke="#B661D7" stroke-width="5"/>
<line x1="2.5" y1="58" x2="2.5" y2="45" stroke="#B661D7" stroke-width="5"/>
<line x1="47.5" y1="58" x2="47.5" y2="45" stroke="#B661D7" stroke-width="5"/>
</svg>
